<?xml version="1.0" encoding="UTF-8" standalone="no"?>
<svg
   width="111.91"
   height="72.139999"
   viewBox="0 0 111.91 72.139999"
   fill="none"
   version="1.1"
   id="svg10"
   sodipodi:docname="header-logo.svg"
   inkscape:version="1.2.2 (732a01da63, 2022-12-09)"
   xmlns:inkscape="http://www.inkscape.org/namespaces/inkscape"
   xmlns:sodipodi="http://sodipodi.sourceforge.net/DTD/sodipodi-0.dtd"
   xmlns="http://www.w3.org/2000/svg"
   xmlns:svg="http://www.w3.org/2000/svg">
  <defs
     id="defs14" />
  <sodipodi:namedview
     id="namedview12"
     pagecolor="#ffffff"
     bordercolor="#666666"
     borderopacity="1.0"
     inkscape:showpageshadow="2"
     inkscape:pageopacity="0.0"
     inkscape:pagecheckerboard="0"
     inkscape:deskcolor="#d1d1d1"
     showgrid="false"
     inkscape:zoom="2.2731077"
     inkscape:cx="78.306894"
     inkscape:cy="40.0333"
     inkscape:window-width="1366"
     inkscape:window-height="705"
     inkscape:window-x="-8"
     inkscape:window-y="-8"
     inkscape:window-maximized="1"
     inkscape:current-layer="svg10" />
  <path
     d="m 59.5903,46.3298 c -2,0 -3.79,-0.44 -5.38,-1.33 -1.58,-0.89 -2.83,-2.11 -3.74,-3.67 -0.91,-1.56 -1.37,-3.33 -1.37,-5.3 0,-1.97 0.46,-3.77 1.37,-5.3 0.91,-1.53 2.15,-2.74 3.72,-3.63 1.57,-0.89 3.37,-1.33 5.4,-1.33 2.03,0 3.79,0.44 5.38,1.31 1.58,0.87 2.82,2.08 3.72,3.63 0.9,1.55 1.35,3.32 1.35,5.32 0,2 -0.45,3.77 -1.35,5.32 -0.9,1.55 -2.14,2.76 -3.72,3.65 -1.58,0.89 -3.38,1.33 -5.38,1.33 z m 0,-3.19 c 1.29,0 2.45,-0.29 3.48,-0.87 1.03,-0.58 1.83,-1.41 2.41,-2.49 0.58,-1.08 0.87,-2.32 0.87,-3.74 0,-1.42 -0.29,-2.69 -0.87,-3.74 -0.58,-1.05 -1.39,-1.87 -2.41,-2.45 -1.03,-0.58 -2.19,-0.87 -3.48,-0.87 -1.29,0 -2.44,0.29 -3.46,0.87 -1.01,0.58 -1.82,1.4 -2.43,2.45 -0.61,1.05 -0.91,2.3 -0.91,3.74 0,1.44 0.3,2.67 0.91,3.74 0.61,1.08 1.42,1.91 2.43,2.49 1.01,0.58 2.17,0.87 3.46,0.87 z"
     fill="#ffffff"
     id="path2" />
  <path
     d="m 76.3103,46.0998 v -20.14 h 3.5 v 5.47 l -0.34,-1.37 c 0.56,-1.39 1.49,-2.46 2.81,-3.19 1.32,-0.73 2.94,-1.1 4.86,-1.1 v 3.53 c -0.15,-0.02 -0.3,-0.04 -0.44,-0.04 h -0.4 c -1.95,0 -3.5,0.58 -4.64,1.75 -1.14,1.17 -1.71,2.85 -1.71,5.05 v 10.03 h -3.65 z"
     fill="#ffffff"
     id="path4" />
  <path
     d="m 101.01,45.2698 c -1.9496,0 -3.6896,-0.41 -5.2296,-1.23 -1.54,-0.82 -2.75,-1.97 -3.65,-3.44 -0.9,-1.47 -1.35,-3.17 -1.35,-5.09 0,-1.92 0.45,-3.65 1.35,-5.11 0.9,-1.46 2.12,-2.59 3.65,-3.4 1.53,-0.81 3.27,-1.22 5.2296,-1.22 1.72,0 3.29,0.35 4.71,1.04 1.42,0.7 2.55,1.77 3.4,3.21 0.85,1.44 1.27,3.27 1.27,5.47 0,2.2 -0.42,3.99 -1.27,5.43 -0.85,1.44 -1.98,2.53 -3.4,3.25 -1.42,0.72 -2.99,1.08 -4.71,1.08 z m 0.46,8.44 c -1.8496,0 -3.6396,-0.26 -5.3796,-0.78 -1.74,-0.52 -3.15,-1.26 -4.24,-2.22 l 1.75,-2.81 c 0.94,0.81 2.09,1.45 3.46,1.92 1.37,0.47 2.8,0.7 4.2896,0.7 2.38,0 4.13,-0.56 5.24,-1.67 1.11,-1.11 1.67,-2.81 1.67,-5.09 v -4.26 l 0.38,-3.99 -0.19,-4.03 v -5.51 h 3.46 v 17.4 c 0,3.55 -0.89,6.16 -2.66,7.83 -1.77,1.67 -4.37,2.51 -7.79,2.51 z m -0.04,-11.63 c 1.34,0 2.53,-0.28 3.57,-0.84 1.04,-0.56 1.86,-1.33 2.45,-2.32 0.6,-0.99 0.89,-2.13 0.89,-3.42 0,-1.29 -0.3,-2.43 -0.89,-3.42 -0.59,-0.99 -1.41,-1.75 -2.45,-2.3 -1.04,-0.54 -2.23,-0.82 -3.57,-0.82 -1.34,0 -2.5396,0.27 -3.5896,0.82 -1.05,0.54 -1.88,1.31 -2.47,2.3 -0.59,0.99 -0.89,2.13 -0.89,3.42 0,1.29 0.3,2.43 0.89,3.42 0.6,0.99 1.42,1.76 2.47,2.32 1.05,0.56 2.2496,0.84 3.5896,0.84 z"
     fill="#ffffff"
     id="path6" />
  <path
     d="m 6.0802999,14 c 0.25,0.5 0.76,0.82 1.32,0.82 0.56,0 1.07,-0.32 1.32,-0.82 L 14.6603,2.14 c 0.23,-0.46 0.2,-1 -0.07,-1.44 -0.27,-0.44 -0.75,-0.7 -1.26,-0.7 H 1.4802999 C 0.97030094,0 0.49030094,0.27 0.22030094,0.7 c -0.2700003,0.44 -0.2900003,0.98 -0.07,1.44 z M 10.9403,2.96 l -3.5300001,7.07 -3.53,-7.07 z M 7.4102999,43.48 c 1.97,0 3.8500001,-0.78 5.2400001,-2.17 1.39,-1.39 2.17,-3.28 2.17,-5.24 0,-1.96 -0.78,-3.85 -2.17,-5.24 -1.39,-1.39 -3.2800001,-2.17 -5.2400001,-2.17 -1.96,0 -3.85,0.78 -5.24,2.17 -1.38999896,1.39 -2.16999907345,3.28 -2.16999907345,5.24 0,1.96 0.78000011345,3.85 2.16999907345,5.24 1.39,1.39 3.27,2.17 5.24,2.17 z m 0,-11.86 c 1.18,0 2.31,0.47 3.1500001,1.3 0.83,0.83 1.3,1.97 1.3,3.15 0,1.18 -0.47,2.31 -1.3,3.15 -0.8300001,0.83 -1.9700001,1.3 -3.1500001,1.3 -1.18,0 -2.31,-0.47 -3.15,-1.3 -0.83,-0.83 -1.3,-1.97 -1.3,-3.15 0,-1.18 0.47,-2.31 1.3,-3.15 0.83,-0.83 1.97,-1.3 3.15,-1.3 z m -5.93,40.52 H 13.3403 c 0.82,0 1.48,-0.66 1.48,-1.48 V 58.8 c 0,-0.82 -0.66,-1.48 -1.48,-1.48 H 1.4802999 c -0.81999896,0 -1.47999907345,0.66 -1.47999907345,1.48 v 11.86 c 0,0.82 0.66000011345,1.48 1.47999907345,1.48 z m 1.48,-11.86 H 11.8603 v 8.9 H 2.9602999 Z M 26.6803,63.25 v -25.7 h -8.4 c -0.82,0 -1.48,-0.66 -1.48,-1.48 0,-0.82 0.66,-1.48 1.48,-1.48 h 8.4 V 8.89 h -8.4 c -0.82,0 -1.48,-0.66 -1.48,-1.48 0,-0.82 0.66,-1.48 1.48,-1.48 h 9.88 c 0.82,0 1.48,0.66 1.48,1.48 v 27.18 h 8.4 c 0.82,0 1.48,0.66 1.48,1.48 0,0.82 -0.66,1.48 -1.48,1.48 h -8.4 v 27.18 c 0,0.82 -0.66,1.48 -1.48,1.48 h -9.88 c -0.82,0 -1.48,-0.66 -1.48,-1.48 0,-0.82 0.66,-1.48 1.48,-1.48 z"
     fill="#ffffff"
     id="path8" />
</svg>
